<svg xmlns="http://www.w3.org/2000/svg" width="100%" height="100%" xmlns:xlink="http://www.w3.org/1999/xlink" viewBox="0 0  1080 820" preserveAspectRatio="xMinYMin meet" ><rect id="svgEditorBackground" x="0" y="0" width="1080" height="820" style="fill: none; stroke: none;"/><image x="6.96604" y="12.9369" width="150.267" height="228.883" id="e1_image" preserveAspectRatio="xMidYMid meet" xlink:href="https://drawsvg.org/drawsvg/samples/png/joconde.png"/><rect x="304.514" y="222.913" style="stroke:black;stroke-width:1px;fill:white" id="e2_rectangle" width="655.801" height="298.543"/><line id="e3_line" x1="304.515" y1="372.184" x2="961.311" y2="373.18" style="stroke:black;fill:none;stroke-width:1px"/><line id="e4_line" x1="629.927" y1="226.893" x2="632.912" y2="524.442" style="stroke:black;fill:none;stroke-width:1px"/><line id="e7_line" x1="628.932" y1="223.908" x2="621.966" y2="236.845" style="stroke:black;fill:none;stroke-width:1px"/><line id="e8_line" x1="627.937" y1="223.908" x2="638.883" y2="233.859" style="stroke:black;fill:none;stroke-width:1px"/><line id="e9_line" x1="960.316" y1="372.184" x2="947.379" y2="364.223" style="stroke:black;fill:none;stroke-width:1px"/><line id="e10_line" x1="960.316" y1="373.18" x2="951.359" y2="383.131" style="stroke:black;fill:none;stroke-width:1px"/><text style="fill:black;font-family:Arial;font-size:20px" x="307.5" y="395.072" id="e11_texte">-20</text><text style="fill:black;font-family:Arial;font-size:20px" x="595.097" y="511.504" id="e12_texte">-20</text><text style="fill:black;font-family:Arial;font-size:20px" x="588.131" y="244.805" id="e13_texte">20</text><text style="fill:black;font-family:Arial;font-size:20px" x="926.481" y="399.053" id="e14_texte">20</text><text style="fill:black;font-family:Arial;font-size:20px" x="649.83" y="243.811" id="e15_texte">y</text><text style="fill:black;font-family:Arial;font-size:20px" x="930.461" y="357.259" id="e16_texte">x</text><text style="fill:black;font-family:Arial;font-size:50px" x="660.776" y="435.874" id="e17_texte">.</text><text style="fill:black;font-family:Arial;font-size:20px" x="298.544" y="569.223" id="e18_texte">v1=[3,2]</text><path d="M668.738,364.223v15.922" style="fill:none;stroke:black;stroke-width:1px" id="e20_pathV"/><path d="M628.932291,354.272728h8.956" style="fill:none;stroke:black;stroke-width:1px" id="e22_pathH"/><text style="fill:black;font-family:Arial;font-size:20px" x="610.024" y="361.238" id="e23_texte">2</text><text style="fill:black;font-family:Arial;font-size:20px" x="662.767" y="403.033" id="e24_texte">3</text><text style="fill:black;font-family:Arial;font-size:50px" x="660.776" y="360.243" id="e19_texte">.</text><line id="e24_line" x1="631.917" y1="371.189" x2="860.799" y2="290.583" style="stroke:black;fill:none;stroke-width:1px"/><text style="fill:black;font-family:Arial;font-size:15px" x="641.869" y="348.301" id="e25_texte"></text><text style="fill:black;font-family:Arial;font-size:20px" x="298.544" y="601.068" id="e26_texte" xml:space="preserve">L(v1; {2})=2*v1</text><path d="M714.514699,363.227855v15.922" style="fill:none;stroke:black;stroke-width:1px" id="e21_pathV"/><text style="fill:black;font-family:Arial;font-size:20px" x="711.528" y="401.043" id="e27_texte">6</text><path d="M625.947292,341.335243h14.927" style="fill:none;stroke:black;stroke-width:1px" id="e28_pathH"/><text style="fill:black;font-family:Arial;font-size:20px" x="609.029" y="343.326" id="e28_texte">4</text><text style="fill:black;font-family:Arial;font-size:50px" x="705.556" y="344.32" id="e20_texte">.</text><text style="fill:black;font-family:Arial;font-size:15px" x="693.616" y="338.349" id="e29_texte">2v</text><text style="fill:black;font-family:Arial;font-size:20px" x="270.68" y="600.073" id="e30_texte">1)</text><text style="fill:black;font-family:Arial;font-size:20px" x="272.67" y="625.946" id="e31_texte">2)</text><text style="fill:black;font-family:Arial;font-size:20px" x="299.539" y="630.922" id="e32_texte" xml:space="preserve">L(v1; {2,5})={2v1, 5v1}</text><path d="M861.796,362.233v23.883" style="fill:none;stroke:black;stroke-width:1px" id="e33_pathV"/><path d="M622.96102,297.548476h15.922379" style="fill:none;stroke:black;stroke-width:1px" id="e35_pathH"/><text style="fill:black;font-family:Arial;font-size:20px" x="598.083" y="303.519" id="e36_texte">10</text><text style="fill:black;font-family:Arial;font-size:20px" x="848.859" y="399.053" id="e37_texte">15</text><text style="fill:black;font-family:Arial;font-size:50px" x="851.844" y="293.568" id="e21_texte">.</text><text style="fill:black;font-family:Arial;font-size:15px" x="834.927" y="287.597" id="e38_texte">5v</text><line id="e39_line" x1="631.917" y1="373.18" x2="612.015" y2="383.131" style="stroke:black;fill:none;stroke-width:1px"/><line id="e40_line" x1="592.112" y1="392.088" x2="572.21" y2="402.039" style="stroke:black;fill:none;stroke-width:1px"/><line id="e41_line" x1="544.346" y1="411.991" x2="524.444" y2="421.942" style="stroke:black;fill:none;stroke-width:1px"/><line id="e42_line" x1="503.545" y1="431.894" x2="483.643" y2="441.845" style="stroke:black;fill:none;stroke-width:1px"/><line id="e43_line" x1="460.754" y1="448.812" x2="440.852" y2="458.763" style="stroke:black;fill:none;stroke-width:1px"/><line id="e44_line" x1="325.414" y1="509.516" x2="305.512" y2="519.467" style="stroke:black;fill:none;stroke-width:1px"/><line id="e45_line" x1="355.268" y1="494.589" x2="335.366" y2="504.54" style="stroke:black;fill:none;stroke-width:1px"/><line id="e46_line" x1="389.103" y1="478.667" x2="369.201" y2="488.618" style="stroke:black;fill:none;stroke-width:1px"/><line id="e47_line" x1="422.938" y1="464.735" x2="403.036" y2="474.686" style="stroke:black;fill:none;stroke-width:1px"/></svg>